<svg width="20" height="24" viewBox="0 0 20 24" fill="none" xmlns="http://www.w3.org/2000/svg">
<path d="M10 1C7.95398 1 5.99176 1.86919 4.54501 3.41637C3.09826 4.96354 2.28548 7.06196 2.28548 9.25V14.1808L1.37645 15.1529C1.19669 15.3452 1.07428 15.5901 1.02469 15.8568C0.975103 16.1235 1.00056 16.3999 1.09786 16.6511C1.19515 16.9024 1.35991 17.1171 1.5713 17.2682C1.78269 17.4193 2.03122 17.4999 2.28548 17.5H17.7145C17.9688 17.4999 18.2173 17.4193 18.4287 17.2682C18.6401 17.1171 18.8048 16.9024 18.9021 16.6511C18.9994 16.3999 19.0249 16.1235 18.9753 15.8568C18.9257 15.5901 18.8033 15.3452 18.6235 15.1529L17.7145 14.1808V9.25C17.7145 7.06196 16.9017 4.96354 15.455 3.41637C14.0082 1.86919 12.046 1 10 1ZM10 23C8.97699 23 7.99588 22.5654 7.2725 21.7918C6.54913 21.0182 6.14274 19.969 6.14274 18.875H13.8573C13.8573 19.969 13.4509 21.0182 12.7275 21.7918C12.0041 22.5654 11.023 23 10 23Z" stroke="#2A4365"/>
</svg>
