<svg width="29" height="29" viewBox="0 0 29 29" fill="none" xmlns="http://www.w3.org/2000/svg">
<path d="M14.5 0C22.5081 0 29 6.49187 29 14.5C29 22.5081 22.5081 29 14.5 29C6.49187 29 0 22.5081 0 14.5C0 6.49187 6.49187 0 14.5 0ZM14.5 2.41667C7.82656 2.41667 2.41667 7.82656 2.41667 14.5C2.41667 21.1734 7.82656 26.5833 14.5 26.5833C21.1734 26.5833 26.5833 21.1734 26.5833 14.5C26.5833 7.82656 21.1734 2.41667 14.5 2.41667ZM21.0176 9.62478C21.4221 10.0293 21.4221 10.685 21.0176 11.0895L12.9464 19.1607C12.542 19.5652 11.8862 19.5652 11.4817 19.1607L8.07121 15.7502C7.66674 15.3457 7.66674 14.69 8.07121 14.2855C8.47568 13.881 9.13146 13.881 9.53593 14.2855L11.4817 16.2313C11.8862 16.6357 12.542 16.6357 12.9464 16.2313L19.5529 9.62478C19.9574 9.22031 20.6132 9.22031 21.0176 9.62478Z" fill="#43BBFF"/>
</svg>
