<svg width="26" height="25" viewBox="0 0 26 25" fill="none" xmlns="http://www.w3.org/2000/svg">
<path d="M5.25452 22.6562C4.63292 22.6562 4.03677 22.4093 3.59724 21.9698C3.1577 21.5302 2.91077 20.9341 2.91077 20.3125V4.6875C2.91077 4.0659 3.1577 3.46976 3.59724 3.03022C4.03677 2.59068 4.63292 2.34375 5.25452 2.34375H17.7545C17.9617 2.34375 18.1604 2.42606 18.3069 2.57257C18.4535 2.71909 18.5358 2.9178 18.5358 3.125C18.5358 3.3322 18.4535 3.53091 18.3069 3.67743C18.1604 3.82394 17.9617 3.90625 17.7545 3.90625H5.25452C5.04732 3.90625 4.8486 3.98856 4.70209 4.13507C4.55558 4.28159 4.47327 4.4803 4.47327 4.6875V20.3125C4.47327 20.5197 4.55558 20.7184 4.70209 20.8649C4.8486 21.0114 5.04732 21.0938 5.25452 21.0938H20.8795C21.0867 21.0938 21.2854 21.0114 21.4319 20.8649C21.5785 20.7184 21.6608 20.5197 21.6608 20.3125V12.5C21.6608 12.2928 21.7431 12.0941 21.8896 11.9476C22.0361 11.8011 22.2348 11.7188 22.442 11.7188C22.6492 11.7188 22.8479 11.8011 22.9944 11.9476C23.141 12.0941 23.2233 12.2928 23.2233 12.5V20.3125C23.2233 20.9341 22.9763 21.5302 22.5368 21.9698C22.0973 22.4093 21.5011 22.6562 20.8795 22.6562H5.25452Z" fill="#3182CE" fill-opacity="0.4"/>
<path d="M13.6202 16.1781L24.5577 5.24064C24.6303 5.168 24.6879 5.08176 24.7272 4.98686C24.7665 4.89195 24.7868 4.79024 24.7868 4.68751C24.7868 4.58479 24.7665 4.48307 24.7272 4.38816C24.6879 4.29326 24.6303 4.20702 24.5577 4.13439C24.485 4.06175 24.3988 4.00413 24.3039 3.96482C24.209 3.92551 24.1073 3.90527 24.0045 3.90527C23.9018 3.90527 23.8001 3.92551 23.7052 3.96482C23.6103 4.00413 23.524 4.06175 23.4514 4.13439L13.067 14.5203L8.93265 10.3844C8.86002 10.3117 8.77378 10.2541 8.67888 10.2148C8.58397 10.1755 8.48225 10.1553 8.37953 10.1553C8.2768 10.1553 8.17508 10.1755 8.08018 10.2148C7.98527 10.2541 7.89904 10.3117 7.8264 10.3844C7.75376 10.457 7.69615 10.5433 7.65683 10.6382C7.61752 10.7331 7.59729 10.8348 7.59729 10.9375C7.59729 11.0402 7.61752 11.142 7.65683 11.2369C7.69615 11.3318 7.75376 11.418 7.8264 11.4906L12.5139 16.1781C12.5865 16.2509 12.6727 16.3086 12.7676 16.348C12.8625 16.3874 12.9643 16.4077 13.067 16.4077C13.1698 16.4077 13.2715 16.3874 13.3665 16.348C13.4614 16.3086 13.5476 16.2509 13.6202 16.1781Z" fill="#3182CE" fill-opacity="0.4"/>
</svg>
