<svg width="28" height="28" viewBox="0 0 28 28" fill="none" xmlns="http://www.w3.org/2000/svg">
<path d="M6.03577 0.78125C6.24297 0.78125 6.44168 0.86356 6.58819 1.01007C6.73471 1.15659 6.81702 1.3553 6.81702 1.5625V21.875H27.1295C27.3367 21.875 27.5354 21.9573 27.6819 22.1038C27.8285 22.2503 27.9108 22.449 27.9108 22.6562C27.9108 22.8635 27.8285 23.0622 27.6819 23.2087C27.5354 23.3552 27.3367 23.4375 27.1295 23.4375H24.0045V26.5625C24.0045 26.7697 23.9222 26.9684 23.7757 27.1149C23.6292 27.2614 23.4305 27.3438 23.2233 27.3438C23.0161 27.3438 22.8174 27.2614 22.6708 27.1149C22.5243 26.9684 22.442 26.7697 22.442 26.5625V23.4375H6.03577C5.82857 23.4375 5.62985 23.3552 5.48334 23.2087C5.33683 23.0622 5.25452 22.8635 5.25452 22.6562V6.25H2.12952C1.92232 6.25 1.7236 6.16769 1.57709 6.02118C1.43058 5.87466 1.34827 5.67595 1.34827 5.46875C1.34827 5.26155 1.43058 5.06284 1.57709 4.91632C1.7236 4.76981 1.92232 4.6875 2.12952 4.6875H5.25452V1.5625C5.25452 1.3553 5.33683 1.15659 5.48334 1.01007C5.62985 0.86356 5.82857 0.78125 6.03577 0.78125ZM9.94202 5.46875C9.94202 5.26155 10.0243 5.06284 10.1708 4.91632C10.3174 4.76981 10.5161 4.6875 10.7233 4.6875H23.2233C23.4305 4.6875 23.6292 4.76981 23.7757 4.91632C23.9222 5.06284 24.0045 5.26155 24.0045 5.46875V17.9688C24.0045 18.176 23.9222 18.3747 23.7757 18.5212C23.6292 18.6677 23.4305 18.75 23.2233 18.75C23.0161 18.75 22.8174 18.6677 22.6708 18.5212C22.5243 18.3747 22.442 18.176 22.442 17.9688V6.25H10.7233C10.5161 6.25 10.3174 6.16769 10.1708 6.02118C10.0243 5.87466 9.94202 5.67595 9.94202 5.46875Z" fill="#E53E3E" fill-opacity="0.4"/>
</svg>
