<svg width="27" height="27" viewBox="0 0 27 27" fill="none" xmlns="http://www.w3.org/2000/svg">
<path d="M24.9565 13.3154L14.7682 3.13243L14.0853 2.44952C13.9297 2.29494 13.7193 2.20819 13.5 2.20819C13.2806 2.20819 13.0702 2.29494 12.9146 2.44952L2.04342 13.3154C1.88398 13.4743 1.75797 13.6634 1.67283 13.8717C1.5877 14.08 1.54515 14.3033 1.54772 14.5283C1.55826 15.4565 2.33082 16.1974 3.25895 16.1974H4.37955V24.7852H22.6204V16.1974H23.7647C24.2156 16.1974 24.6401 16.0207 24.9591 15.7017C25.1162 15.5451 25.2407 15.3589 25.3253 15.1538C25.41 14.9488 25.4531 14.729 25.4522 14.5072C25.4522 14.059 25.2755 13.6345 24.9565 13.3154ZM14.9765 22.8867H12.0234V17.5078H14.9765V22.8867ZM20.7219 14.2989V22.8867H16.664V16.875C16.664 16.2923 16.1921 15.8203 15.6093 15.8203H11.3906C10.8079 15.8203 10.3359 16.2923 10.3359 16.875V22.8867H6.27799V14.2989H3.74674L13.5026 4.55098L14.1117 5.16006L23.2558 14.2989H20.7219Z" fill="#6B46C1"/>
</svg>
