<svg width="26" height="25" viewBox="0 0 26 25" fill="none" xmlns="http://www.w3.org/2000/svg">
<path fill-rule="evenodd" clip-rule="evenodd" d="M2.65039 3.12501C2.65039 2.54971 3.11676 2.08334 3.69206 2.08334H10.9837C11.559 2.08334 12.0254 2.54971 12.0254 3.12501V10.4167C12.0254 10.992 11.559 11.4583 10.9837 11.4583H3.69206C3.11676 11.4583 2.65039 10.992 2.65039 10.4167V3.12501ZM4.73372 4.16668V9.37501H9.94206V4.16668H4.73372Z" fill="#25855A" fill-opacity="0.4"/>
<path fill-rule="evenodd" clip-rule="evenodd" d="M14.1086 3.12501C14.1086 2.54971 14.575 2.08334 15.1503 2.08334H22.442C23.0173 2.08334 23.4836 2.54971 23.4836 3.12501V10.4167C23.4836 10.992 23.0173 11.4583 22.442 11.4583H15.1503C14.575 11.4583 14.1086 10.992 14.1086 10.4167V3.12501ZM16.192 4.16668V9.37501H21.4003V4.16668H16.192Z" fill="#25855A" fill-opacity="0.4"/>
<path fill-rule="evenodd" clip-rule="evenodd" d="M14.1086 14.5833C14.1086 14.008 14.575 13.5417 15.1503 13.5417H22.442C23.0173 13.5417 23.4836 14.008 23.4836 14.5833V21.875C23.4836 22.4503 23.0173 22.9167 22.442 22.9167H15.1503C14.575 22.9167 14.1086 22.4503 14.1086 21.875V14.5833ZM16.192 15.625V20.8333H21.4003V15.625H16.192Z" fill="#25855A" fill-opacity="0.4"/>
<path fill-rule="evenodd" clip-rule="evenodd" d="M2.65039 14.5833C2.65039 14.008 3.11676 13.5417 3.69206 13.5417H10.9837C11.559 13.5417 12.0254 14.008 12.0254 14.5833V21.875C12.0254 22.4503 11.559 22.9167 10.9837 22.9167H3.69206C3.11676 22.9167 2.65039 22.4503 2.65039 21.875V14.5833ZM4.73372 15.625V20.8333H9.94206V15.625H4.73372Z" fill="#25855A" fill-opacity="0.4"/>
</svg>
