<svg width="64" height="64" viewBox="0 0 64 64" fill="none" xmlns="http://www.w3.org/2000/svg">
<path d="M32.3625 6C17.74 5.80251 5.80247 17.74 5.99997 32.3625C6.19497 46.3863 17.6137 57.805 31.6375 58C46.2625 58.2 58.1975 46.2625 57.9975 31.64C57.805 17.6138 46.3862 6.195 32.3625 6ZM48.165 46.9062C48.1152 46.9601 48.0542 47.0023 47.9862 47.03C47.9183 47.0576 47.8451 47.0699 47.7719 47.0661C47.6986 47.0623 47.6271 47.0424 47.5624 47.0079C47.4977 46.9733 47.4414 46.925 47.3975 46.8662C46.2794 45.4034 44.9102 44.151 43.3537 43.1675C40.1712 41.125 36.1387 40 32 40C27.8612 40 23.8287 41.125 20.6462 43.1675C19.0898 44.1506 17.7206 45.4026 16.6025 46.865C16.5585 46.9237 16.5022 46.9721 16.4375 47.0066C16.3728 47.0412 16.3013 47.061 16.2281 47.0649C16.1549 47.0687 16.0817 47.0563 16.0137 47.0287C15.9458 47.0011 15.8848 46.9588 15.835 46.905C12.1671 42.9455 10.0893 37.7716 9.99997 32.375C9.79622 20.2113 19.7775 10.03 31.9462 10C44.115 9.97 54 19.8513 54 32C54.0042 37.5268 51.92 42.851 48.165 46.9062Z" fill="#FFF5F7"/>
<path d="M32.0001 18C29.5351 18 27.3063 18.9238 25.7226 20.6025C24.1388 22.2813 23.3476 24.6025 23.5263 27.0938C23.8888 32 27.6901 36 32.0001 36C36.3101 36 40.1038 32 40.4738 27.095C40.6588 24.6275 39.8738 22.3275 38.2638 20.6175C36.6738 18.93 34.4488 18 32.0001 18Z" fill="#FFF5F7"/>
</svg>
