<svg width="30" height="30" viewBox="0 0 30 30" fill="none" xmlns="http://www.w3.org/2000/svg">
<path d="M27.1875 4.6875H2.8125C2.29395 4.6875 1.875 5.10645 1.875 5.625V24.375C1.875 24.8936 2.29395 25.3125 2.8125 25.3125H27.1875C27.7061 25.3125 28.125 24.8936 28.125 24.375V5.625C28.125 5.10645 27.7061 4.6875 27.1875 4.6875ZM26.0156 23.2031H3.98438V6.79688H26.0156V23.2031ZM17.8799 13.9453H21.4951C21.5332 13.9453 21.5625 13.8398 21.5625 13.7109V12.3047C21.5625 12.1758 21.5332 12.0703 21.4951 12.0703H17.8799C17.8418 12.0703 17.8125 12.1758 17.8125 12.3047V13.7109C17.8125 13.8398 17.8418 13.9453 17.8799 13.9453ZM18.0205 18.1641H23.4609C23.5752 18.1641 23.6689 18.0586 23.6689 17.9297V16.5234C23.6689 16.3945 23.5752 16.2891 23.4609 16.2891H18.0205C17.9062 16.2891 17.8125 16.3945 17.8125 16.5234V17.9297C17.8125 18.0586 17.9062 18.1641 18.0205 18.1641V18.1641ZM6.5625 19.7168H7.84863C7.97168 19.7168 8.07129 19.6201 8.08008 19.4971C8.19141 18.0176 9.42773 16.8457 10.9277 16.8457C12.4277 16.8457 13.6641 18.0176 13.7754 19.4971C13.7842 19.6201 13.8838 19.7168 14.0068 19.7168H15.293C15.3248 19.7168 15.3562 19.7104 15.3855 19.6979C15.4147 19.6854 15.4411 19.6671 15.463 19.6441C15.4849 19.621 15.5019 19.5938 15.513 19.564C15.524 19.5342 15.5289 19.5025 15.5273 19.4707C15.4453 17.9092 14.5898 16.5498 13.3418 15.7764C13.8922 15.1714 14.1963 14.3823 14.1943 13.5645C14.1943 11.751 12.7324 10.2832 10.9307 10.2832C9.12891 10.2832 7.66699 11.751 7.66699 13.5645C7.66699 14.417 7.98926 15.1904 8.51953 15.7764C7.88417 16.1701 7.35353 16.7117 6.97295 17.3551C6.59236 17.9984 6.37313 18.7243 6.33398 19.4707C6.32227 19.6055 6.42773 19.7168 6.5625 19.7168V19.7168ZM10.9277 12.041C11.7627 12.041 12.4424 12.7236 12.4424 13.5645C12.4424 14.4053 11.7627 15.0879 10.9277 15.0879C10.0928 15.0879 9.41309 14.4053 9.41309 13.5645C9.41309 12.7236 10.0928 12.041 10.9277 12.041Z" fill="#25855A"/>
</svg>
