<svg width="30" height="30" viewBox="0 0 30 30" fill="none" xmlns="http://www.w3.org/2000/svg">
<path d="M20.1562 7.73438C20.1562 7.60547 20.0508 7.5 19.9219 7.5H8.67188C8.54297 7.5 8.4375 7.60547 8.4375 7.73438V9.14062C8.4375 9.26953 8.54297 9.375 8.67188 9.375H19.9219C20.0508 9.375 20.1562 9.26953 20.1562 9.14062V7.73438ZM19.9219 11.7188H8.67188C8.54297 11.7188 8.4375 11.8242 8.4375 11.9531V13.3594C8.4375 13.4883 8.54297 13.5938 8.67188 13.5938H19.9219C20.0508 13.5938 20.1562 13.4883 20.1562 13.3594V11.9531C20.1562 11.8242 20.0508 11.7188 19.9219 11.7188ZM14.0625 15.9375H8.67188C8.54297 15.9375 8.4375 16.043 8.4375 16.1719V17.5781C8.4375 17.707 8.54297 17.8125 8.67188 17.8125H14.0625C14.1914 17.8125 14.2969 17.707 14.2969 17.5781V16.1719C14.2969 16.043 14.1914 15.9375 14.0625 15.9375ZM12.6562 24.9609H6.09375V4.33594H22.5V14.4141C22.5 14.543 22.6055 14.6484 22.7344 14.6484H24.375C24.5039 14.6484 24.6094 14.543 24.6094 14.4141V3.16406C24.6094 2.64551 24.1904 2.22656 23.6719 2.22656H4.92188C4.40332 2.22656 3.98438 2.64551 3.98438 3.16406V26.1328C3.98438 26.6514 4.40332 27.0703 4.92188 27.0703H12.6562C12.7852 27.0703 12.8906 26.9648 12.8906 26.8359V25.1953C12.8906 25.0664 12.7852 24.9609 12.6562 24.9609ZM23.1094 22.7812C23.959 22.0107 24.4922 20.8975 24.4922 19.6582C24.4922 17.3291 22.6025 15.4395 20.2734 15.4395C17.9443 15.4395 16.0547 17.3291 16.0547 19.6582C16.0547 20.8975 16.5879 22.0107 17.4375 22.7812C15.7676 23.7334 14.6191 25.4971 14.5312 27.5303C14.5254 27.6621 14.6338 27.7734 14.7656 27.7734H16.1748C16.2979 27.7734 16.4004 27.6768 16.4092 27.5508C16.5234 25.5234 18.2139 23.9062 20.2734 23.9062C22.333 23.9062 24.0234 25.5234 24.1377 27.5508C24.1436 27.6738 24.2461 27.7734 24.3721 27.7734H25.7812C25.916 27.7734 26.0215 27.6621 26.0156 27.5303C25.9307 25.4941 24.7793 23.7334 23.1094 22.7812ZM20.2734 17.3145C21.5684 17.3145 22.6172 18.3633 22.6172 19.6582C22.6172 20.9531 21.5684 22.002 20.2734 22.002C18.9785 22.002 17.9297 20.9531 17.9297 19.6582C17.9297 18.3633 18.9785 17.3145 20.2734 17.3145Z" fill="#9F7AEA"/>
</svg>
