<svg width="30" height="30" viewBox="0 0 30 30" fill="none" xmlns="http://www.w3.org/2000/svg">
<path d="M15 0C23.2843 0 30 6.71573 30 15C30 23.2843 23.2843 30 15 30C6.71573 30 0 23.2843 0 15C0 6.71573 6.71573 0 15 0ZM15 2.5C8.09644 2.5 2.5 8.09644 2.5 15C2.5 21.9036 8.09644 27.5 15 27.5C21.9036 27.5 27.5 21.9036 27.5 15C27.5 8.09644 21.9036 2.5 15 2.5ZM21.7424 9.95667C22.1608 10.3751 22.1608 11.0535 21.7424 11.4719L13.3929 19.8214C12.9744 20.2398 12.296 20.2398 11.8776 19.8214L8.34953 16.2933C7.93111 15.8749 7.93111 15.1965 8.34953 14.7781C8.76795 14.3597 9.44634 14.3597 9.86476 14.7781L11.8776 16.791C12.296 17.2094 12.9744 17.2094 13.3929 16.791L20.2272 9.95667C20.6456 9.53825 21.324 9.53825 21.7424 9.95667Z" fill="#ED8936"/>
</svg>
